<svg xmlns="http://www.w3.org/2000/svg" width="600" height="600" viewBox="0 0 600 600" version="1.1"><path d="M 237.006 107.067 C 228.768 109.494, 219.463 113.932, 212.040 118.973 C 205.815 123.200, 195.752 133.757, 196.321 135.463 C 196.555 136.166, 230.484 136.661, 301.583 137 L 406.500 137.500 412.198 140.215 C 427.900 147.694, 438.450 160.247, 441.855 175.500 C 442.606 178.862, 443.058 204.165, 443.236 252.750 C 443.425 304.628, 443.811 324.999, 444.604 325 C 446.922 325, 458.703 311.903, 463.190 304.339 C 465.769 299.990, 469.134 292.847, 470.668 288.466 L 473.457 280.500 473.778 226.519 C 474.147 164.249, 474.142 164.193, 465.746 147 C 461.260 137.815, 459.484 135.373, 451.559 127.500 C 441.092 117.101, 429.855 110.542, 416.562 107.072 C 408.828 105.054, 406.491 105.002, 326.062 105.076 C 247.797 105.149, 243.162 105.252, 237.006 107.067" stroke="none" fill="#fa0404" fill-rule="evenodd"/><path d="M 217.101 182.067 C 191.039 183.946, 177.159 190.814, 169.217 205.763 C 161.741 219.833, 160.960 231.885, 161.063 331.577 C 161.147 412.468, 161.734 425.139, 165.968 437.419 C 172.544 456.492, 185.709 465.396, 211.176 467.999 C 218.974 468.795, 242.275 469.027, 286 468.743 C 355.848 468.290, 357.019 468.195, 369.678 461.979 C 382.638 455.615, 390.370 443.840, 393.385 425.876 C 394.789 417.507, 395 404.406, 394.996 325.376 C 394.992 229.763, 394.764 224.127, 390.399 211.989 C 386.395 200.854, 376.857 191.038, 366 186.879 C 354.244 182.375, 346.931 181.881, 286.500 181.517 C 255.150 181.328, 223.920 181.576, 217.101 182.067 M 230.250 202.755 L 222 203.081 222 285.540 L 222 368 298.500 368 L 375 368 374.976 314.750 C 374.938 230.602, 373.844 219.049, 365.130 210.824 C 359.546 205.553, 353.281 203.936, 335 203.050 C 319.840 202.316, 246.603 202.109, 230.250 202.755 M 194.790 208.047 C 192.596 209.206, 190.007 211.838, 188.453 214.490 C 182.757 224.210, 182.759 224.177, 182.287 303.596 L 181.853 376.693 188.652 373.391 C 192.391 371.575, 196.587 369.957, 197.975 369.795 L 200.500 369.500 200.756 287.750 C 200.960 222.659, 200.756 206.009, 199.756 206.044 C 199.065 206.069, 196.831 206.970, 194.790 208.047 M 203.500 389.932 C 196.540 391.633, 189.324 396.943, 185.292 403.329 C 182.969 407.010, 182.810 407.997, 183.269 415.912 C 183.976 428.087, 186.235 434.566, 191.558 439.691 C 199.968 447.786, 204.638 448.194, 284 447.759 C 343.911 447.431, 349.983 447.245, 355.160 445.586 C 369.590 440.962, 373.478 432.062, 374.200 402 L 374.500 389.500 290.500 389.349 C 244.300 389.267, 205.150 389.529, 203.500 389.932" stroke="none" fill="#fcfcfc" fill-rule="evenodd"/></svg>